<svg xmlns="http://www.w3.org/2000/svg" xmlns:xlink="http://www.w3.org/1999/xlink" viewBox="0 0 100.53 35.99"><defs><style>.cls-1{fill:url(#linear-gradient);}.cls-2{fill:url(#linear-gradient-2);}.cls-3,.cls-4{fill:#fff;}.cls-4{font-size:3.16px;font-family:Code-Bold, Code Bold;font-weight:700;letter-spacing:0.1em;}.cls-5{letter-spacing:0.06em;}.cls-6{letter-spacing:0.1em;}.cls-7{letter-spacing:0.02em;}.cls-8{letter-spacing:0.14em;}.cls-9{letter-spacing:0.12em;}.cls-10{letter-spacing:0.16em;}.cls-11{letter-spacing:0.18em;}</style><linearGradient id="linear-gradient" x1="9.8" y1="18.08" x2="28.74" y2="18.08" gradientUnits="userSpaceOnUse"><stop offset="0" stop-color="#e8cc7c"/><stop offset="1" stop-color="#a47a3a"/></linearGradient><linearGradient id="linear-gradient-2" x1="0" y1="18" x2="35.99" y2="18" xlink:href="#linear-gradient"/></defs><g id="Layer_2" data-name="Layer 2"><g id="Layer_1-2" data-name="Layer 1"><path class="cls-1" d="M27.6,13.2a7.54,7.54,0,0,0-3.07-2.94,9.8,9.8,0,0,0-3.74-.94V6.49H18.73V9.27H17V6.49H15V9.27H9.8v2.42h.63a3.12,3.12,0,0,1,1.09.12.72.72,0,0,1,.36.35,2.79,2.79,0,0,1,.12,1v9.57a3.16,3.16,0,0,1-.11,1,.88.88,0,0,1-.41.42,2.59,2.59,0,0,1-1.05.13H9.8v2.42H15v2.88H17V26.78h1.72v2.89h2.06V26.54l.35-.05A11.37,11.37,0,0,0,24,25.75,8.09,8.09,0,0,0,26.43,24a8.31,8.31,0,0,0,1.73-2.69,9.27,9.27,0,0,0,.58-3.39A9.08,9.08,0,0,0,27.6,13.2Zm-4.48,8.11a4.7,4.7,0,0,1-1.95,2,7.32,7.32,0,0,1-3.35.63,3.76,3.76,0,0,1-1-.07.52.52,0,0,1-.31-.25,2.2,2.2,0,0,1-.06-.68V12.07h2a6.07,6.07,0,0,1,3,.58,4.42,4.42,0,0,1,1.73,2,7.36,7.36,0,0,1,.7,3.33A7,7,0,0,1,23.12,21.31Z"/><path class="cls-2" d="M18,0A18,18,0,1,0,36,18,18,18,0,0,0,18,0Zm0,33.09A15.1,15.1,0,1,1,33.09,18,15.11,15.11,0,0,1,18,33.09Z"/><path class="cls-3" d="M43.41,23.9V21.63h8.18a6.41,6.41,0,0,0,0-12.82H45.12v3.47H42.85V6.54h8.74a8.68,8.68,0,1,1,0,17.36Z"/><path class="cls-3" d="M91.14,24.15a9,9,0,1,1,9-9A9,9,0,0,1,91.14,24.15Zm0-15.68a6.71,6.71,0,1,0,6.71,6.71A6.72,6.72,0,0,0,91.14,8.47Z"/><path class="cls-3" d="M77.63,23.79v-8.6a6.41,6.41,0,1,0-12.82,0v8.6H62.54v-8.6a8.68,8.68,0,0,1,17.36,0v8.6Z"/><rect class="cls-3" x="63.63" y="16.32" width="7.58" height="2.27"/><text class="cls-4" transform="translate(43.49 29.48)">The<tspan class="cls-5" x="5.89" y="0"> </tspan><tspan class="cls-6" x="7.19" y="0">DAO</tspan><tspan class="cls-7" x="14.45" y="0"> </tspan><tspan class="cls-6" x="15.62" y="0">Cr</tspan><tspan class="cls-8" x="20.17" y="0">y</tspan><tspan x="22.41" y="0">pto</tspan><tspan class="cls-9" x="29.12" y="0">cu</tspan><tspan class="cls-10" x="33.98" y="0">r</tspan><tspan class="cls-11" x="36.16" y="0">r</tspan><tspan class="cls-8" x="38.41" y="0">e</tspan><tspan class="cls-6" x="40.33" y="0">ncy Fund</tspan></text></g></g></svg>